# xmcd
#
# Track frame offsets:
# 150
# 19890
# 44417
#
# Disc length: 917 seconds
#
#
# Revision: 0
# Processed by: cddbd v1.5.1PL0 Copyright (c) Steve Scherf et al.
# Submitted via: FreeRIP 2.30 
#
DISCID=1f039303
DTITLE=Crow, Sheryl - All I Wanna Do (live cd)
DYEAR=1994
DGENRE=Country
TTITLE0=All I Wanna Do
TTITLE1=Run Baby Run
TTITLE2=Leaving Las Vegas
EXTD=
EXTT0=
EXTT1=
EXTT2=
PLAYORDER=
